<svg width="446" height="180" viewBox="0 0 446 180" fill="none" xmlns="http://www.w3.org/2000/svg">
<path d="M59.0876 167.735C59.0876 154.99 62.5704 139.599 69.536 121.563C54.4038 122.766 42.0339 124.329 32.4261 126.252C23.0586 128.176 18.0145 129.138 17.2939 129.138C11.7695 129.138 7.446 127.094 4.32348 123.006C1.44116 118.918 0 115.19 0 111.824C0 108.216 0.120093 105.932 0.360287 104.97C1.80145 97.2745 11.8896 84.8898 30.6247 67.8156C49.3598 50.501 69.0556 34.8697 89.7123 20.9218C110.369 6.97395 123.94 0 130.425 0C134.508 0 137.751 1.32265 140.153 3.96794C142.795 6.61323 144.116 10.1002 144.116 14.4288C144.116 18.517 141.834 24.2886 137.271 31.7435C132.707 38.9579 128.744 45.6914 125.381 51.9439C122.259 58.1964 119.616 63.7274 117.455 68.5371C113.131 78.3968 109.648 86.9339 107.006 94.1483C115.173 93.6673 122.018 93.4268 127.543 93.4268C133.067 93.4268 137.751 93.6673 141.594 94.1483C138.472 109.78 136.43 117.956 135.469 118.677L96.5578 119.399C90.3128 130.701 85.2687 149.579 81.4256 176.032L60.5288 179.279C59.568 176.152 59.0876 172.305 59.0876 167.735ZM78.5433 96.6733C84.0677 81.7635 95.3569 58.4369 112.411 26.6934C97.999 34.1483 81.1854 46.2926 61.9699 63.1262C42.7545 79.9599 29.6639 93.9078 22.6983 104.97C47.198 100.641 65.813 97.8757 78.5433 96.6733Z" fill="#FF7B66"/>
<path d="M266.684 3.96794C280.135 3.96794 290.824 7.81563 298.75 15.511C306.917 23.2064 311 34.3888 311 49.0581C311 63.487 304.875 81.1623 292.625 102.084C280.375 123.006 264.402 141.283 244.707 156.914C225.251 172.305 206.636 180 188.862 180C159.798 180 145.266 163.768 145.266 131.303C145.266 112.305 151.271 92.9459 163.281 73.2265C175.531 53.2665 191.143 36.7936 210.119 23.8076C229.334 10.5812 248.189 3.96794 266.684 3.96794ZM242.185 141.042C254.194 129.499 263.802 115.671 271.008 99.5591C278.454 83.4469 282.177 69.3788 282.177 57.3547C282.177 45.0902 279.415 35.8317 273.89 29.5792C268.366 23.0862 260.8 19.8397 251.192 19.8397C234.378 19.8397 217.565 30.7816 200.751 52.6653C184.178 74.3086 175.891 96.0721 175.891 117.956C175.891 129.739 178.653 139.479 184.178 147.174C189.702 154.629 197.749 158.357 208.317 158.357C219.126 158.357 230.415 152.585 242.185 141.042Z" fill="#FF7B66"/>
<path d="M360.971 167.735C360.971 154.99 364.454 139.599 371.42 121.563C356.288 122.766 343.918 124.329 334.31 126.252C324.942 128.176 319.898 129.138 319.178 129.138C313.653 129.138 309.33 127.094 306.207 123.006C303.325 118.918 301.884 115.19 301.884 111.824C301.884 108.216 302.004 105.932 302.244 104.97C303.685 97.2745 313.773 84.8898 332.509 67.8156C351.244 50.501 370.94 34.8697 391.596 20.9218C412.253 6.97395 425.824 0 432.309 0C436.392 0 439.635 1.32265 442.037 3.96794C444.679 6.61323 446 10.1002 446 14.4288C446 18.517 443.718 24.2886 439.155 31.7435C434.591 38.9579 430.628 45.6914 427.265 51.9439C424.142 58.1964 421.5 63.7274 419.339 68.5371C415.015 78.3968 411.532 86.9339 408.89 94.1483C417.057 93.6673 423.902 93.4268 429.427 93.4268C434.951 93.4268 439.635 93.6673 443.478 94.1483C440.355 109.78 438.314 117.956 437.353 118.677L398.442 119.399C392.197 130.701 387.153 149.579 383.309 176.032L362.413 179.279C361.452 176.152 360.971 172.305 360.971 167.735ZM380.427 96.6733C385.952 81.7635 397.241 58.4369 414.294 26.6934C399.883 34.1483 383.069 46.2926 363.854 63.1262C344.638 79.9599 331.548 93.9078 324.582 104.97C349.082 100.641 367.697 97.8757 380.427 96.6733Z" fill="#FF7B66"/>
</svg>
